M48
;DRILL file {KiCad (5.0.0)} date 12/18/18 17:36:21
;FORMAT={-:-/ absolute / metric / decimal}
FMAT,2
METRIC,TZ
T1C0.700
T2C0.800
T3C0.900
T4C1.000
T5C1.100
T6C3.000
%
G90
G05
M71
T1
X67.38Y-36.
X75.Y-36.
X51.Y-28.
X51.Y-35.62
T2
X45.Y-28.
X47.54Y-28.
X55.Y-29.
X55.Y-31.54
X55.Y-34.08
X55.Y-36.62
X62.62Y-29.
X62.62Y-31.54
X62.62Y-34.08
X62.62Y-36.62
T3
X175.Y-42.
X177.54Y-42.
X112.Y-56.
X114.54Y-56.
X126.Y-56.
X128.54Y-56.
X200.54Y-56.
X203.08Y-56.
X28.Y-49.
X30.54Y-49.
X56.Y-42.
X58.54Y-42.
X147.Y-63.
X149.54Y-63.
X42.Y-49.
X44.54Y-49.
X200.54Y-48.725
X203.08Y-48.725
X84.Y-56.
X86.54Y-56.
X200.54Y-42.
X203.08Y-42.
X35.Y-70.
X37.54Y-70.
X70.Y-63.
X72.54Y-63.
X36.Y-31.
X36.Y-36.
X41.Y-33.5
X133.Y-56.
X135.54Y-56.
X126.Y-42.
X128.54Y-42.
X28.Y-56.
X30.54Y-56.
X28.Y-42.
X30.54Y-42.
X147.Y-49.
X149.54Y-49.
X147.Y-56.
X149.54Y-56.
X42.Y-63.
X44.54Y-63.
X70.Y-70.
X72.54Y-70.
X193.54Y-42.
X196.08Y-42.
X28.Y-63.
X30.54Y-63.
X70.Y-56.
X72.54Y-56.
X226.54Y-56.
X229.08Y-56.
X70.Y-42.
X72.54Y-42.
X175.Y-56.
X177.54Y-56.
X175.Y-63.
X177.54Y-63.
X77.Y-49.
X79.54Y-49.
X112.Y-63.
X114.54Y-63.
X226.54Y-70.
X229.08Y-70.
X112.Y-49.
X114.54Y-49.
X200.54Y-63.
X203.08Y-63.
X35.Y-42.
X37.54Y-42.
X207.54Y-42.
X210.08Y-42.
X56.Y-56.
X58.54Y-56.
X133.Y-49.
X135.54Y-49.
X147.Y-42.
X149.54Y-42.
X98.Y-70.
X100.54Y-70.
X154.Y-49.
X156.54Y-49.
X175.Y-70.
X177.54Y-70.
X43.92Y-56.
X46.46Y-56.
X98.Y-63.
X100.54Y-63.
X112.Y-70.
X114.54Y-70.
X133.Y-70.
X135.54Y-70.
X133.Y-63.
X135.54Y-63.
X200.54Y-70.
X203.08Y-70.
X168.Y-63.
X170.54Y-63.
X226.54Y-63.
X229.08Y-63.
X98.Y-42.
X100.54Y-42.
X214.54Y-42.
X217.08Y-42.
X98.Y-49.
X100.54Y-49.
X226.54Y-42.
X229.08Y-42.
X70.Y-49.
X72.54Y-49.
X119.Y-42.
X121.54Y-42.
X56.Y-63.
X58.54Y-63.
X98.Y-56.
X100.54Y-56.
X175.Y-49.
X177.54Y-49.
X186.54Y-42.
X189.08Y-42.
X161.Y-56.
X163.54Y-56.
X119.Y-56.
X121.54Y-56.
X56.Y-70.
X58.54Y-70.
X91.Y-49.
X93.54Y-49.
X147.Y-70.
X149.54Y-70.
X28.Y-70.
X30.54Y-70.
T4
X71.Y-33.
X26.Y-32.46
X26.Y-35.
T5
X81.Y-29.
X81.Y-31.54
X81.Y-34.08
T6
X30.Y-28.
X229.Y-28.
T0
M30
